<svg xmlns="http://www.w3.org/2000/svg" width="51" height="51" fill="none"><path fill="#fec21e" d="M43.99 36.535c-.276-.82-.989-1.5-1.428-2.208-.82-1.324-.515-2.888-.203-4.312.366-1.673.366-2.502.512-4.207a39.4 39.4 0 0 0-.384-9.716c-.52-3.151-1.546-6.188-2.142-9.32-.35-1.814-.992-3.387-1.712-5.08-.215-.508-.367-.43-.636-.058A39 39 0 0 0 35 6.861c-.231.472-2.502 5.332-2.26 5.403-1.296-.374-3.197-.998-7.045-.998-3.583 0-5.367.514-6.686.998.009 0-.55-1.33-.597-1.419-1.286-2.56-2.588-5.114-4.076-7.547-.183-.301-.852-1.901-1.317-1.646-.86.474-1.189 2.444-1.429 3.319-1.009 3.652-2.014 7.485-2.5 11.248-.615 4.79-.886 9.603-.328 14.41.086.74.22 1.612.03 2.336-.3 1.135-1.392 1.875-1.789 2.975-.387 1.063.322 1.929 1.346 1.996.258.016 2.471-.575 2.394-.942.11.528.183.922.277 1.31.591 2.466 2.95 9.897 5.022 11.067 1.336.759 2.433-.012 2.447-1.609 0-.26-.027-.52-.045-.853a21.8 21.8 0 0 0 7.248 1.314 23.6 23.6 0 0 0 7.605-1.308c-.018.332-.05.593-.046.852.015 1.597 1.112 2.36 2.447 1.61 1.237-.704 1.89-2.446 2.382-3.736.718-1.883 1.465-4.726 1.94-6.693.093-.388.164-.782.276-1.31-.044.21 1.852.882 2.074.908.752.103 1.571-.131 1.71-1.027.051-.33.02-.668-.09-.984M20.11 22.578a2.12 2.12 0 0 1 1.98 1.27 2.08 2.08 0 0 1-.437 2.295 2.13 2.13 0 0 1-2.31.469 2.1 2.1 0 0 1-.955-.772 2.1 2.1 0 0 1-.358-1.168 2.06 2.06 0 0 1 .602-1.474 2.1 2.1 0 0 1 1.479-.62M15.1 33.522l-.67-.261s.257-.888.348-1.22l.947-2.87 1.693 4.899a17 17 0 0 1-2.317-.548m2.772.613c.716-1.384 2.101-3.414 2.748-4.536l.467 1.258c.405 1.184.929 2.527 1.271 3.753a47 47 0 0 1-4.486-.475m8.296.588a63 63 0 0 1-3.213-.08l2.995-5.025a359 359 0 0 1 2.381 5.08q-1.06.023-2.163.025M29 34.661c.84-1.765 1.484-3.55 2.26-5.043.786 1.796 1.204 2.872 2.04 4.684a51 51 0 0 1-4.3.36m2.846-7.894a2.13 2.13 0 0 1-1.182-.34 2.1 2.1 0 0 1-.792-.934 2.08 2.08 0 0 1 .441-2.293 2.13 2.13 0 0 1 2.309-.467c.388.158.72.427.954.772s.358.751.358 1.167a2.06 2.06 0 0 1-.605 1.477 2.1 2.1 0 0 1-1.483.618m5.723 6.675c-1.173.344-2.37.6-3.581.764l2.947-5.038.69 4.181a.4.4 0 0 1-.056.093"/></svg>
